<?xml version="1.0" encoding="UTF-8"?>
<svg version="1.1" viewBox="0 0 2048 2048" width="1280" height="1280" xmlns="http://www.w3.org/2000/svg">
<path transform="translate(1e3 126)" d="m0 0h92l54 1 21 2 6 4 5 11 6 25 8 45 18 109 6 36 3 6 8 5 51 19 30 13 17 9 16 6 6-1 9-6 8-7 12-8 18-13 13-9 18-13 19-13 19-14 16-11 18-13 14-10 14-9 10-4h7l14 7 10 9 2 1v2l4 2 160 160 7 8 8 8 6 8 4 8v8l-4 10-10 14-8 12-14 20-11 16-20 28-13 19-12 16-13 18-15 22-9 13-2 3 1 8 11 24 12 27 11 28 11 30 5 8 6 3 22 4 58 9 92 16 34 7 16 5 8 5 2 5 1 30v195l-1 67-3 5-6 4-21 6-51 10-64 11-53 9-34 6-8 3-7 21-10 25-11 27-10 23-11 23 1 8 7 11 26 36 14 20 8 12 13 18 14 20 13 19 10 13 7 10 12 18 5 11 1 4v7l-4 8-15 15-7 8-8 9h-2l-2 4-8 8h-2l-2 4-108 108h-2v2l-12 12-8 7-8 8-4 3h-2v2l-8 7-7 5-5 2-6-1-14-6-18-12-34-24-22-15-18-13-14-10-18-13-17-12-18-13-18-12-3-1h-7l-11 6-16 8-30 13-38 14-21 9-4 4-2 18-7 45-8 47-7 41-7 39-6 25-6 15-5 4-17 2-49 1h-215l-16-2-5-5-6-14-6-25-11-61-19-117-2-12-3-5-25-10-24-9-25-10-26-12-17-8-8-2-11 8-10 8-14 10-23 16-17 12-13 10-16 11-18 13-20 14-30 20-11 7-13 4-12-6-10-9-8-7-10-10-8-7-148-148v-2h-2l-7-8-8-10-3-5v-9l8-16 20-28 13-19 9-12 12-17 10-14 13-18 12-17 9-13 7-10 9-13 6-8 2-5v-8l-9-21-9-20-11-27-14-37-5-12-3-4-16-3-65-11-47-8-55-9-30-6-13-4-8-7-3-6-2-23v-243l1-18 3-9 5-6 13-5 42-8 125-21 44-8 6-3 5-8 10-23 8-23 8-18 11-25 6-12 3-9v-7l-6-12-8-11-12-17-14-20-12-17-39-54-11-16-13-19-12-19-3-8v-9l6-9 14-15 45-45h2l2-4 128-128 9-7 4-2h10l12 5 16 10 28 19 14 10 18 13 16 11 18 13 16 12 16 11 13 9 13 10 9 6 5 2 6-1 34-16 23-10 20-8 26-9 10-5 5-5 4-16 18-106 12-69 7-28 6-12 5-3 7-1 25-1zm-5 508-30 3-24 4-28 7-36 12-27 12-19 10-20 12-17 12-15 12-9 7-15 13-12 12-6 5-7 8-9 10-13 17-18 27-12 21-13 26-13 32-8 27-8 34-4 27-2 27v28l2 26 4 27 7 29 9 30 9 24 14 29 11 20 15 23 10 14 8 10 9 10 11 12 14 14 8 7 12 10 10 8 23 16 14 9 20 12 12 8 5 8 4 16 5 5 15 7 15 6 12 4 30 6 11 1 8-7 6-8 4-3h72l10-1h14l6 2 12 9 6 8 4 1 16-4 18-4 17-4 16-7 16-6 5-4v-10l2-11 8-6 16-10 17-10 28-19 18-14 11-10 8-7 23-23 7-8 12-15 10-14 10-15 7-11 6-12 10-19 8-19 8-22 8-28 7-32 4-28 1-16v-44l-3-26-6-34-5-20-12-36-11-26-11-22-13-22-11-17-14-19-12-14-12-13-10-10-8-7-14-12-16-12-21-14-15-9-18-10-23-11-26-10-18-6-33-8-23-4-31-3z" fill="#EDA10C"/>
<path transform="translate(1e3 126)" d="m0 0h92l54 1 21 2 6 4 5 11 6 25 8 45 18 109 6 36 3 6 8 5 51 19 30 13 17 9 16 6 6-1 9-6 8-7 12-8 18-13 13-9 18-13 19-13 19-14 16-11 18-13 14-10 14-9 10-4h7l14 7 10 9 2 1v2l4 2 160 160 7 8 8 8 6 8 4 8v8l-4 10-10 14-8 12-14 20-11 16-20 28-13 19-12 16-13 18-15 22-9 13-2 3 1 8 11 24 12 27 11 28 11 30 5 8 6 3 22 4 58 9 92 16 34 7 16 5 8 5 2 5 1 30v195l-1 67-3 5-6 4-21 6-51 10-64 11-53 9-34 6-8 3-7 21-10 25-11 27-10 23-11 23 1 8 7 11 26 36 14 20 8 12 13 18 14 20 13 19 10 13 7 10 12 18 5 11 1 4v7l-4 8-15 15-7 8-8 9h-2l-2 4-8 8h-2l-2 4-108 108h-2v2l-12 12-8 7-8 8-4 3h-2v2l-8 7-7 5-5 2-6-1-14-6-18-12-34-24-22-15-18-13-14-10-18-13-17-12-18-13-18-12-3-1h-7l-11 6-16 8-30 13-38 14-21 9-4 4-2 18-7 45-8 47-7 41-7 39-6 25-6 15-5 4-17 2-49 1h-215l-16-2-5-5-6-14-6-25-11-61-19-117-2-12-3-5-25-10-24-9-25-10-26-12-17-8-8-2-11 8-10 8-14 10-23 16-17 12-13 10-16 11-18 13-20 14-30 20-11 7-13 4-12-6-10-9-8-7-10-10-8-7-148-148v-2h-2l-7-8-8-10-3-5v-9l8-16 20-28 13-19 9-12 12-17 10-14 13-18 12-17 9-13 7-10 9-13 6-8 2-5v-8l-9-21-9-20-11-27-14-37-5-12-3-4-16-3-65-11-47-8-55-9-30-6-13-4-8-7-3-6-2-23v-243l1-18 3-9 5-6 13-5 42-8 125-21 44-8 6-3 5-8 10-23 8-23 8-18 11-25 6-12 3-9v-7l-6-12-8-11-12-17-14-20-12-17-39-54-11-16-13-19-12-19-3-8v-9l6-9 14-15 45-45h2l2-4 128-128 9-7 4-2h10l12 5 16 10 28 19 14 10 18 13 16 11 18 13 16 12 16 11 13 9 13 10 9 6 5 2 6-1 34-16 23-10 20-8 26-9 10-5 5-5 4-16 18-106 12-69 7-28 6-12 5-3 7-1 25-1zm-86 56-3 7-3 12-7 37-5 26-10 58-9 47-3 21-5 15-11 9-51 17-20 8-21 9-25 11-30 16-14 5h-8l-9-4-12-9-15-10-16-11-16-12-11-7-12-9-17-12-22-16-19-13-11-8-14-11-10-6-5 1-13 13-7 8-10 9-79 79-6 7-2 1v2l-4 2-7 8-10 10-11 9-2 3 1 6 7 11 10 15 10 14 13 18 16 23 10 14 13 18 13 19 11 15 13 19 7 10 4 9v8l-9 19-6 10-13 28-11 26-11 28-9 25-7 18-7 13-11 7-26 4-43 7-31 6-44 7-54 10-15 5-2 6v209l3 2 60 11 68 12 84 15 12 3 2 4 6 15 10 29 13 35 12 28 7 15 21 42 1 9-3 8-11 18-8 11-10 14-14 19-17 25-15 20-16 23-17 25-7 10-10 14 1 7 4 5 10 8 38 38 7 6 7 8 6 6h2l2 4h2v2l8 7 2 3h2l2 4 10 10 8 7 32 32 9 10 4-1 9-7 7-6 32-22 15-11 14-10 11-8 34-24 18-13 14-9 22-14 10-4 8 1 10 4 16 8 19 9 15 7 35 15 29 10 21 8 16 6 9 7 4 12 19 109 7 42 9 48 3 11 3 3 137-1 71-1 6-3 3-8 13-71 7-43 7-37 3-18 2-20 6-20 4-6 10-7 35-13 34-12 23-10 20-9 33-16 14-5 6 1 20 11 18 13 19 13 17 12 18 13 14 10 19 13 23 16 16 11 11 9 8 5 4 1 9-7 9-10 16-15 28-28 7-8 50-50 8-7 23-23 3-6-1-6-6-10-12-17-11-15-12-17-14-20-26-36-8-12-13-18-9-13-11-18-2-9v-7l8-18 4-6 13-28 5-11 16-38 10-28 11-29 5-9 12-5 20-4 56-9 49-9 45-8 29-6 11-4 3-7 2-83v-27l-1-94-4-4-9-3-24-5-22-5-83-14-45-8-12-2-12-1-12-4-7-10-5-10-12-34-12-30-14-32-11-24-14-30v-8l3-11 12-17 7-11 8-10 9-14 14-20 9-12 9-13 7-9 10-15 9-12 9-13 12-17 8-11 1-6-7-8-13-12-100-100-8-7-11-12-7-9-6-4-6 2-16 12-14 9-17 12-35 24-12 9-18 13-16 11-14 10-18 13-11 7-11 5-9 1-13-5-17-9-18-8-16-8-25-11-19-8-24-9-31-11-6-4-4-6-4-16-6-37-9-49-12-72-6-31-3-11-2-2-95-1z" fill="#040202"/>
<path transform="translate(1009,578)" d="m0 0h25l37 3 34 5 35 8 36 12 25 10 29 14 26 15 21 14 14 10 14 11 13 11 8 7 15 14 9 9 7 8 11 13 10 13 12 17 13 20 10 18 9 16 14 32 6 15 10 32 7 30 7 47 3 31v43l-2 21-7 39-9 34-9 26-13 31-8 16-10 19-10 17-16 24-13 17-12 14-7 8-14 15-16 16-8 7-14 12-13 10-14 10-20 13-15 9-17 8-14 4h-6l-14-8-11-6-5-3 4-3 6-4v-10l2-11 7-6 25-15 16-10 22-15 18-14 11-10 8-7 9-9h2l2-4 9-9 7-8 12-15 10-14 10-15 7-11 6-12 10-19 8-19 8-22 8-28 7-32 4-28 1-16v-44l-3-26-6-34-5-20-12-36-11-26-11-22-13-22-11-17-14-19-12-14-12-13-9-9-8-7-14-12-16-12-21-14-15-9-18-10-23-11-26-10-18-6-33-8-23-4-31-3h-47l-30 3-24 4-28 7-36 12-27 12-19 10-20 12-17 12-15 12-9 7-15 13-12 12-5 4-7 8-9 10-13 17-18 27-12 21-13 26-13 32-8 27-8 34-4 27-2 27v28l2 26 4 27 7 29 9 30 9 24 14 29 11 20 15 23 10 14 8 10 9 10 11 12 13 13 8 7 12 10 10 8 23 16 14 9 20 12 13 9 5 8 4 16 2 4 5 2-2 2-16 8-9 6-3 1h-8l-12-3-21-12-33-21-15-11-11-8-8-7-10-8-10-10-8-7-14-15-12-14-14-19-10-14-11-17-11-19-14-26-13-31-10-28-7-25-5-26-4-30-2-21-1-31 2-33 3-29 7-39 9-32 8-23 8-19 8-18 10-19 14-25 14-21 12-15 7-9 9-11 9-10 14-15 7-7h2v-2h2l1-3 10-8 13-11 19-14 22-14 20-12 21-11 27-12 25-9 27-8 34-7 31-4z" fill="#040202"/>
<path transform="translate(1049,1410)" d="m0 0h18l6 2 13 10 4 6v11l-2 11-6 9-8 4-7 3-16 1h-69l-12-3-6-3-4-5-4-9-2-13-1-5 7-6 6-8 5-4h72z" fill="#040202"/>
</svg>
