<?xml version="1.0" encoding="UTF-8"?>
<svg version="1.1" viewBox="0 0 2048 2048" width="1280" height="1280" xmlns="http://www.w3.org/2000/svg">
<path transform="translate(79,64)" d="m0 0 1916 1 12 3 13 7 8 6v2h2l8 10 10 20v1313h-2l-5 12-6 9-9 10-11 7-8 4-11 3-13 1h-718l3 21 19 148 6 46h121l62 1 16 3 15 6 14 8 11 9 8 8 10 14 8 17 4 15 11 73 15 101 1 8v9l-3 9-6 8-8 5-8 2h-1082l-10-4-7-6-6-12v-14l22-149 6-36 5-15 6-11 9-13 13-13 13-9 14-7 17-5 25-2h92l74 1 2-19 10-77 10-78 5-37v-5h-721l-15-2-12-5-11-7-10-10-7-11-6-14v-1311l9-18 8-10 10-9 14-7 11-3zm4 57-24 1-2 2-1 40v1065l1932 1 3-1v-1104l-2-3-21-1zm-26 1165-1 17v102l1 8 5 2h1922l5-2 2-2v-125zm785 185-2 2-9 69-7 52-7 56-5 38h423l-1-12-21-163-5-38-2-4zm-267 274-10 3-11 8-6 8-4 7-4 18-11 75-9 60v2l1007 1-1-13-12-82-8-53-4-12-7-10-9-7-10-4-4-1z"/>
<path transform="translate(984,393)" d="m0 0h19l115 15 13 3 8 6 6 7 3 9v10l-9 69-13 100-10 77-8 61-20 154-4 30-4 10-6 8-9 5-4 1h-14l-106-14-21-3-8-4-7-7-4-8-1-3v-13l13-100 11-84 22-169 17-131 3-12 3-6 7-7zm33 60-6 43-40 308-7 53-3 24v8l67 9h3l13-99 12-92 22-169 9-70v-6l-11-2-55-7z"/>
<path transform="translate(1337,466)" d="m0 0 10 2 9 5 185 185 5 8 2 8-1 9-5 10-9 10-174 174-10 6-3 1h-14l-10-5-12-11-81-81-7-10-2-6v-11l4-10 12-13 4-2 2-4h2l2-4h2l2-4h2l2-4h2l2-4h2l2-4h2l2-4h2l2-4h2l2-4 20-20h2l-1-4-7-8-64-64-5-9-1-4v-10l4-10 9-10 87-87 9-5zm-2 70-5 5-9 10-34 34 6 7 66 66 5 9 2 11-3 11-7 9-67 67 6 7 43 43h3l7-8 130-130-3-5h-2v-2h-2v-2l-132-132z"/>
<path transform="translate(703,467)" d="m0 0h15l10 5 12 11 81 81 7 10 2 8v7l-4 11-6 8h-2l-2 4-49 49-6 5-6 7h-2l-1 5 10 10 4 3v2h2v2h2v2h2l6 7 6 5v2h2v2h2v2h2v2h2v2h2v2h2v2l4 2 16 16 8 10 3 6 1 4v10l-6 12-9 10-83 83-9 6-6 2h-13l-8-3-12-11-174-174-6-10-2-6 1-11 5-10 170-170 5-6 8-7 7-6zm7 68-140 140 1 4 7 7h2l2 4 4 4h2l2 4 4 4h2l2 4h2l2 4h2l2 4h2l2 4h2l2 4h2l2 4h2l2 4h2l2 4h2l2 4h2l2 4 16 16h2l2 4 8 8h2l2 4h2l2 4h2l2 4h2l2 4h2l2 4h2l2 4h2v2h2v2h2v2h2v2l4 4h2l2 4 6 5h3l7-8 41-41-6-7-63-63-6-9-2-9 1-9 7-14 4-2 44-44v-2l4-2v-2h2l6-7 4-3v-2l4-2 2-2-1-4-7-8-39-39z"/>
</svg>
