<?xml version="1.0" encoding="UTF-8"?>
<svg version="1.1" viewBox="0 0 2048 2048" width="1280" height="1280" xmlns="http://www.w3.org/2000/svg">
<path transform="translate(528)" d="m0 0h1520v1519l-54-1h-250l-4-2-1-4-1-197v-189l1-259 1-341-12 11-7 7-7 6-7 8-88 88-1 2h-2l-2 4-4 2v2l-4 4h-2l-2 4-1294 1294h-2l-2 4-15 14-1 2h-2l-2 4h-2v2l-4 4h-2v2h-2l-2 4-8 8h-2v2h-2v2h-2l-2 4-10 10-7 6-5 5-4 5h-2l-2 4-7 8h-6l-1-4h-2l-7-9-1-3h-2l-7-8-5-4v-2h-2v-2h-2v-2h-2v-2h-2l-7-8-5-4v-2h-2v-2l-4-2v-2h-2l-7-8-123-123-6-5-7-8-12-11-5-3v-7h2l2-4 9-7 10-9 28-28 7-8 20-20h2l2-4 12-12h2l2-4 1361-1361 3-4h2l1-3 6-5 25-25 5-4 1-2h2l2-4 13-13 2-4h-987l-5-2-1-3-1-151v-128z"/>
</svg>
