<?xml version="1.0" encoding="UTF-8"?>
<svg version="1.1" viewBox="0 0 2048 2048" width="1280" height="1280" xmlns="http://www.w3.org/2000/svg">
<path transform="translate(1e3)" d="m0 0h42l29 6 17 5 21 9 20 11 17 13 14 12 33 33 9 11 12 14 14 19 10 15 13 21 12 22 8 16 10 22 11 29 9 30 7 29 6 36 3 32 1 23 1 430 17 17 7 8 14 17 10 14 11 17 12 21 12 25 11 29 7 24 6 29 3 23 2 33v221l-2 9-6 9-8 6-7 3-7 1v52l9 1 8 4 5 4 5 7 3 9v123l-2 17-5 18-10 19-8 11-15 15-14 9-12 6-15 5-16 3h-23l-15-3-17-6-16-9-10-8-8-7-11-14-8-14-3-3 1 6v65l14 3 18 6 16 8 12 7 13 10 10 9 12 12 11 15 10 17 10 25 4 16v2h16l26 2 23 4 22 6 20 8 16 8 16 9 5 2 11-13 8-8 5-6 8-7 10-9 13-10 17-12 26-15 19-9 24-9 24-7 25-5 28-3h41l21 2 28 5 25 7 20 7 20 9 21 11 20 13 12 9 10 8 14 12 17 17 18 22 12 17 13 22 8 16 10 23 7 22 6 24 6 36v35l-6 9-7 7-11 5h-2e3l-11-6-7-7-5-9v-39l8-42 7-24 9-24 12-25 10-17 8-12 12-16 8-10 11-12 18-18 11-9 13-10 21-14 23-13 20-9 25-9 23-6 20-4 27-3h42l28 3 29 6 20 6 22 8 25 12 18 10 19 13 14 11 15 13 20 20 8 10 3 1 20-12 19-9 19-7 23-6 26-4 35-1 2-11 5-16 8-18 8-14 9-12 11-13 13-12 17-12 16-9 17-7 17-5 8-1v-80l-4 9-5 10-9 13-11 12-9 8-11 7-14 7-17 5-11 2h-24l-16-3-16-6-15-8-10-8-10-9-11-14-10-19-5-16-2-13-1-32v-371l1-72 3-28 4-23 7-28 10-29 11-25 13-25 12-19 13-18 13-16 11-12 5-6h2l2-4 9-9 1-440 3-36 5-33 8-35 11-35 11-29 8-18 8-16 12-22 15-24 12-17 12-16 11-13 12-14 12-12 7-8 12-11 10-9 19-14 15-9 19-9 24-8z" fill="#010001"/>
<path transform="translate(1006,60)" d="m0 0h36l26 6 12 5 15 8 3 1v2l5 2 11 9 6 4 7 8 10 9 10 11 5 5 9 11 8 10 2 1 1 3 3 3v2h2l1 4h2v3h2l3 5v2h2v3h2v3h2l4 7 1 4h2l1 5h2l1 5h2l2 7h2l11 23 4 7 3 7 6 16 5 12 6 20 1 1 1 7 3 8 6 27 3 18 2 15 2 27 1 601v142l-1 18-3 10-1 2h-2l-2 5-5 6-15 7h-114l-1-332-1-14-4-13-8-16-8-12-13-13-8-5v-2l-5-1v-2l-7-2-11-5-12-3-6-1h-25l-13 3-10 3-5 3h-4v2l-5 1v2l-9 5-12 11-10 13-2 5h-2l-2 6-3 7-4 13-2 8v100l3 10 1 5h2l6 7 8 4 12 1 11-4 10-9 4-9 1-5 1-94 4-10 4-6 7-7 10-5 3-1h17l9 4 6 4 7 7 5 10 2 10v693l-2 9-6 12-7 7-13 6-5 1h-9l-10-3-8-5-8-8-5-11-2-11v-496l-4-11-4-6-9-6-6-2h-13l-12 6-4 5h-2l-3 9-1 2-1 136h-111l-8-3v-2l-6-2-6-7v-2h-2l-4-8-1-18v-719l1-41 4-34 5-31 2-6 2-10h2l1-11 6-16 3-10 4-9 4-11 8-16 5-12 14-25h2v-3h2l1-5 2-3h2v-3h2v-3h2v-3h2l1-4 2-3h2l1-4h2v-3h2l1-4 2-1 2-4h2l2-5h2l2-5h2l2-5 10-10 16-17 8-7 10-10 5-2 1-3h3l1-3 15-9 10-5 5-2h5v-2l6-2 12-2 1-1z" fill="#FBFCFB"/>
<path transform="translate(884,1364)" d="m0 0 42 1 1 65 1 132 3 16 8 19 11 16 11 11 15 10 16 7 18 4h26l15-3 17-7 11-7 14-12 10-13 8-16 4-12 2-12 2-198 1-1 47 1 1 193v124l2 10 4 7 8 7 9 3 21 2 19 5 12 5 14 9 11 9 11 12 9 14 7 16 4 14 3 30 4 10 2 4 14 7h16l12-2h36l24 4 17 5 19 8 14 8 11 7 12 10 9 6 7 3 11 1 11-4 9-8 10-14 10-13 11-12 14-14 14-11 15-11 23-13 19-9 30-10 22-5 24-3h33l26 3 23 5 27 9 16 7 22 12 19 13 17 14 22 22 9 11 8 11 11 17 11 21 6 15 7 21 5 21 2 10v6l-1 1-102 1h-497l-228-1h-237l-397 1h-219l-244-1 1-7 5-24 5-18 10-25 10-20 9-14 10-14 11-13 7-8 11-11 11-9 10-8 15-10 21-12 23-10 24-8 23-5 24-3h33l26 3 22 5 16 5 16 6 27 13 14 9 14 10 13 11 10 9 8 8 7 8 11 14 10 14 4 5 9 5 8 2h7l10-4 11-8 13-10 15-9 16-8 27-9 23-4h34l21 3 11-1 9-5 7-8 3-8 1-5 1-20 4-17 6-15 9-15 12-13 7-7 14-9 14-7 17-5 21-2 11-2 8-5 6-7 3-8 1-237 1-86z" fill="#FDE361"/>
<path transform="translate(1e3 211)" d="m0 0h41l17 3v2l13 1 15 5 15 7 14 7 9 6 3 1v2l4 1 16 13v2l4 2 12 12 12 15 10 16 8 15 4 11 4 10 3 10 6 30v37l-4 20-4 18-5 12-3 8-8 17h-2l-2 6-2 4h-2v3h-2l-1 4-5 6-8 10h-2l-2 4-13 13-5 3-3 3h-2v2l-4 1v2l-7 4-5 2v2l-5 1v2l-17 8-11 5-33 9-29 2-32-1-15-3v-2l-8-1-12-3-6-3-7-3-19-9-15-10-13-10-5-5-10-9-5-7-4-3-1-3-2-1v-3l-3-1-1-3-2-1v-3h-2l-3-6v-2h-2l-2-7h-2l-6-12-4-10-4-11v-6h-2l-2-9-3-21-1-13v-17l2-19 4-23 3-7 5-16 8-15 2-5h2l1-5h2l1-5h2v-3h2l1-4h2l1-4h2l1-4h2l2-5 8-7 7-8 6-6h3l2-4h3l1-3 4-3h3v-2h3v-2h3v-2l5-1v-2l5-1v-2l14-7 7-3 8-3 13-4 22-5z" fill="#010001"/>
<path transform="translate(726,926)" d="m0 0h2l1 231 2 14 5 16 8 16 11 14 11 10 13 8 13 7 1 1 1 68 3 14 7 14 9 10 9 7 1 2v21l-7 23-50 150-8 16-8 9-9 6-14 5h-15l-12-4-11-7-8-8-8-16-2-11-1-21v-358l1-73 2-26 5-28 7-27 7-20 9-20 11-21 10-16z" fill="#FB6D52"/>
<path transform="translate(1321,932)" d="m0 0 3 1 12 20 10 19 10 25 7 22 5 21 4 24 2 31 1 223 4 11 7 8 9 5 9 2v51l-12 4-8 6-5 6-4 11-1 125-3 10-6 11-8 9-12 7-12 4h-14l-12-4-10-6-9-9-8-16-12-35-14-43-26-78-2-8v-32l13-11 9-13 6-16 1-5 1-70 17-9 14-10 11-11 7-10 8-16 5-16 1-5 1-145z" fill="#FB6D52"/>
<path transform="translate(1014,825)" d="m0 0h17l9 4 6 4 7 7 5 10 2 10v693l-2 9-6 12-7 7-13 6-5 1h-9l-10-3-8-5-8-8-5-11-2-11v-496l-4-11-4-6-9-6-6-2-11-1v-1h5l-1-50-5-1v-1h9l11-4 10-9 4-9 1-5 1-94 4-10 4-6 7-7 10-5z" fill="#FD886E"/>
<path transform="translate(1009,271)" d="m0 0h30l21 4 16 6 17 9 14 10 7 6v2l4 2 7 8 10 14 10 19 6 19 3 16 1 9v13l-3 20-5 17-7 15-6 11-12 16-12 12-12 9-15 9-20 8-21 5-8 1h-19l-18-3-15-4-18-8-15-9-13-11-12-12-9-13-9-16-6-16-4-16-2-15v-13l3-21 6-20 10-21 10-14 11-12 11-10 17-11 17-8 17-5z" fill="#616774"/>
<path transform="translate(1119,1247)" d="m0 0h77v58h-77z" fill="#F9F6F4"/>
<path transform="translate(853,1248)" d="m0 0h73l1 55-1 2h-73z" fill="#FBFAF8"/>
<path transform="translate(1868,1805)" d="m0 0 10 6 14 10 14 12 21 21 9 11 8 11 11 17 11 21 6 15 7 21 5 21 2 10v6l-1 1-102 1h-497l-228-1v-1l425-1h393v-2l-8-3 2-1 1-5v-12l-2-10-4-16-4-12-3-4-4-8-11-19-10-15-8-11-5-6v-2l-4-2v-3l-3-1-7-8-5-6-8-7-12-9-4-4-8-5-3-5z" fill="#F9E360"/>
<path transform="translate(438,1806)" d="m0 0 7 4 14 10 13 11 10 9 8 8 7 8 11 14 10 14 4 5 9 5 8 2h7l10-4 7-5 2 1-5 6v2l-3 1-4 4-9 2-12 1-11-4v-2l-4-1-5-5-8-9-9-13-4-6-10-11v-2l-4-2v-3l-4-2v-2h-2v-2h-2l-5-5-17-13-5-4-5-3-3-5 1-3z" fill="#F6DE60"/>
<path transform="translate(1583,1986)" d="m0 0h227l175 1v1l-102 1h-497l-228-1v-1z" fill="#C96B5D"/>
<path transform="translate(62,1981)" d="m0 0h1v5h292l566 1v1l-397 1h-219l-244-1z" fill="#D06B5C"/>
<path transform="translate(125,1849)" d="m0 0v3l-2 4-7 7 1 4-4 2-1 7-3 3h-2l-1 7-4 5-1 5-5 10-6 15-7 18-5 12-5 16-1 3-1 15-4 2h-5l2-17 7-28 10-26 11-22 9-14 10-14 11-13z" fill="#F9E461"/>
<path transform="translate(1120,1366)" d="m0 0h46v25l-3 5h-1l-3-19-4-4-2-1h-13l-11 2-1 15 1 11-1 25-2 18-3 5-2-3-1-43z" fill="#FEF161"/>
<path transform="translate(786,1733)" d="m0 0 2 1-5 5-3 6-4 5h-2l-1 5h-2l-1 7-2 3-3 9-5 12-3 10-2 9v10l-1 11-3 5-2 3h-2l-1 5-5 6-6 3h-4l-1 3-5 1-3-1v-2l-14-1-18-2h-27l-20 3-9 1 4-2 23-4h34l21 3 11-1 9-5 7-8 3-8 1-5 1-20 4-17 6-15 9-15 12-13z" fill="#EECE61"/>
<path transform="translate(1120,1364)" d="m0 0 47 1 1 193v124l2 12h-2l-2-9v-319h-46l1 127v36l-1 31-3 13-1-3 1-7 2-198z" fill="#DF6C58"/>
<path transform="translate(935,1600)" d="m0 0 5 1 5 5 7 9 9 9 15 10 16 7 18 4h33v1l-6 1h-30v2l-8 1-7-1-11-2-14-6-10-7-7-6-9-12-4-9z" fill="#F2D860"/>
<path transform="translate(940,1980)" d="m0 0h210l44 1v1l-26 1h-245l-16-1v-1z" fill="#FFF261"/>
<path transform="translate(882,1365)" d="m0 0h1l1 187v119l-1 14-3 8-1-2 1-3 1-237z" fill="#C56A5D"/>
<path transform="translate(1248,1728)" d="m0 0 7 2 1 2 9 4 9 9 10 13 8 15 2 5v10l-2 1-2-1-5-10-6-8-5-5-7-9-3-5-8-9-9-9z" fill="#F9E560"/>
<path transform="translate(1454,1866)" d="m0 0 11 6 16 12 9 7 9 4 11 1 11-4 9-8 4-6 3 3v2l-8 6-5 5-7 6-14 3h-12l-11-6-11-9v-2l-4-2-5-4v-2h-2l-4-5 1-4z" fill="#F7E060"/>
<path transform="translate(885,1365)" d="m0 0 40 1v11l-1 4v27l-1 29-1 6-2-1-1-16v-42l-1-8-7-5-9-1h-5l-8 5-2 8-2 18h-1v-35z" fill="#FEF161"/>
<path transform="translate(1120,1566)" d="m0 0 3 1v10l-4 15h-2l-1 6-4 7h-2l-2 4-6 3h-2l-2 4-8 8h-2l-2 4-7 1 5-5 10-9 10-14 8-16 3-10 3-1z" fill="#F6E161"/>
<path transform="translate(1119,1370)" d="m0 0h1l1 123v36l-1 31-3 13-1-3 1-7z" fill="#CB6B5C"/>
<path transform="translate(1321,932)" d="m0 0 3 1 12 20 10 19 10 25 2 6 1 10-3-2-2-10-2-2-2-10h-2l-2-9-2-1-3-9-8-15-1-3-4-2v-6l-6 1z" fill="#F47F67"/>
<path transform="translate(736,1193)" d="m0 0 3 1 8 13 9 11 10 9 13 8 12 6 1 7-4-2v-2l-2-1-9-5-8-4-7-5v-2l-4-1v-2h-2v-2h-2v-2h-2v-2h-2l-4-6-2-1-6-12-2-3z" fill="#EE7D67"/>
<path transform="translate(986,1407)" d="m0 0h1l1 100v53l-2-2-1-8z" fill="#EE6C55"/>
<path transform="translate(1300,1830)" d="m0 0 7 6 1 3 14 7h20l-2 2-15 1 1 2h-11l-10-6-5-7v-2h-2v-4h2z" fill="#E9CF62"/>
<path transform="translate(1591,1818)" d="m0 0 2 1-5 6h-2l-1 3-10 8-6 4-9 9-1 5h-2l-1 3-5 3-3 3-2-1 11-13 18-18 14-11z" fill="#E4B360"/>
<path transform="translate(1321,932)" d="m0 0 3 1 12 20 1 4-4-2-1-3-4-2v-6l-6 1z" fill="#F1866A"/>
<path transform="translate(1297,1809)" d="m0 0 2 4 1 5v11h-2v-2h-2l-2-4v-9h2z" fill="#FEF061"/>
<path transform="translate(786,1733)" d="m0 0 2 1-5 5-3 6-4 5h-2v2l-6 2v2l-2-1 8-10z" fill="#ECC260"/>
<path transform="translate(1095,1613)" d="m0 0h2l1 3-8 8h-2l-2 4-7 1 5-5 10-9z" fill="#EDC15F"/>
<path transform="translate(1591,1818)" d="m0 0 2 1-5 6h-2l-1 3-10 8h-3l10-11z" fill="#EBC560"/>
<path transform="translate(1545,1863)" d="m0 0 4 2-2 1-1 4-9 8-2-1z" fill="#E7C862"/>
<path transform="translate(125,1849)" d="m0 0v3l-2 4-7 7 1 4-5 2-4 2 6-9z" fill="#DBB362"/>
<path transform="translate(733,1843)" d="m0 0h2v5h-4l-1 3-5 1-3-1v-3z" fill="#F3DA62"/>
<path transform="translate(1534,1878)" d="m0 0 3 3v2l-8 6-3 4h-5l5-5 7-8z" fill="#E0BA62"/>
<path transform="translate(140,1834)" d="m0 0 3 1-5 6-1 3-5 3-2 2v-3l2-4z" fill="#E3CD63"/>
<path transform="translate(1614,1803)" d="m0 0h2l-2 4-9 5-6 3-1 2-4-1 15-10z" fill="#DFB561"/>
<path transform="translate(777,1236)" d="m0 0 10 3 4 2 1 7-4-2v-2l-2-1-9-5z" fill="#F78068"/>
<path transform="translate(1335,957)" d="m0 0h3l8 16h-2v-2l-4-2z" fill="#E57D69"/>
<path transform="translate(1306,1200)" d="m0 0h2l-1 6-3 4h-2l-2 4-2 1 1-5 6-8z" fill="#E77B66"/>
<path transform="translate(1454,1866)" d="m0 0 11 6 4 4-5-2-8-4v-2h-2z" fill="#D29060"/>
<path transform="translate(878,1699)" d="m0 0 1 3h-2l-1 5h-5l2-4z" fill="#FEEF61"/>
<path transform="translate(1342,971)" d="m0 0h2v2h2l3 6v2l-5-2z" fill="#F38069"/>
<path transform="translate(124,1854)" d="m0 0 2 1-5 7-6 2 6-7z" fill="#FFF261"/>
<path transform="translate(1047,1644)" d="m0 0h7l-2 4h-5l-1-2z" fill="#FEF061"/>
</svg>
