<?xml version="1.0" encoding="UTF-8"?>
<svg version="1.1" viewBox="0 0 2048 2048" width="1280" height="1280" xmlns="http://www.w3.org/2000/svg">
<path transform="translate(66,524)" d="m0 0 892 1 13 4 9 7 6 7 4 8 2 9v932l-3 12-6 10-9 8-8 4-10 2-37 1h-860l-24-1-12-3-11-8-7-9-4-9-1-4v-938l5-12 7-9 8-6 9-4 5-1z" fill="#010000"/>
<path transform="translate(32)" d="m0 0h1981l12 5 9 7 7 9 3 8 2 13v353l-2 19-5 10-9 10-8 5-12 3-62 1-1913-1-11-3-11-7-7-9-4-7-2-7v-377l8-16 4-5 14-9z" fill="#5E6E80"/>
<path transform="translate(64,1607)" d="m0 0 1948 1 12 3 9 6 5 5 6 9 4 10v371l-5 12-6 8-8 7-8 4-10 2h-1974l-13-3-11-7-7-9-4-8-2-7v-371l8-16 6-7 11-6 10-3z" fill="#E5E6E7"/>
<path transform="translate(1116,525)" d="m0 0h898l10 3 10 6 6 7 7 14 1 3v440l-5 13-7 9-7 6-9 4-12 2h-889l-13-3-10-7-7-8-5-10-2-10v-432l3-12 7-12 7-6 12-6z" fill="#B3B8F3"/>
<path transform="translate(108,604)" d="m0 0h351l453 1v564l-4-1-3-4v-2h-2l-7-8-10-10-7-8-8-8-7-8-9-9-7-8-9-9-7-8-10-10-7-8-8-8-7-8-9-9-7-8-9-9-7-8-10-10-7-8-7-7-7-8-7-7-7-8-8-8-7-8-13-10-9-4-6-1h-9l-11 3-9 6-8 8-18 27-11 17-38 57-29 44-86 129-5-2-11-8-17-12-36-26-17-12-18-13-14-10-18-13-11-7-10-5-10-2-12 1-10 4-13 11-12 14-13 15-9 10-9 11-11 12-9 11-11 12-7 8-24 28-10 11-9 11-12 13-9 11-11 12-9 11-10 11-3 3-1-1v-734z" fill="#9DE0FA"/>
<path transform="translate(32)" d="m0 0h1981l12 5 9 7 7 9 3 8 2 13v353l-2 19-5 10-9 10-8 5-12 3-62 1-1913-1-11-3-11-7-7-9-4-7-2-7v-377l8-16 4-5 14-9zm49 81v280l1 1h1428l453-1 2-3v-277z" fill="#010000"/>
<path transform="translate(64,1607)" d="m0 0 1948 1 12 3 9 6 5 5 6 9 4 10v371l-5 12-6 8-8 7-8 4-10 2h-1974l-13-3-11-7-7-9-4-8-2-7v-371l8-16 6-7 11-6 10-3zm17 81v276l1886 1v-276l-1-1z" fill="#020101"/>
<path transform="translate(1116,525)" d="m0 0h898l10 3 10 6 6 7 7 14 1 3v440l-5 13-7 9-7 6-9 4-12 2h-889l-13-3-10-7-7-8-5-10-2-10v-432l3-12 7-12 7-6 12-6zm47 80-1 1v343l2 3h803l1-3v-342l-1-2z" fill="#010000"/>
<path transform="translate(680,1043)" d="m0 0 4 1 7 8 5 5v2h2l7 8 13 13v2h2l7 8 14 15 3 3v2h2l7 8 10 10 7 8 11 11 7 8 7 7 7 8 15 16 9 9 7 8 11 11 7 8 30 32 7 7v2h2l7 8 7 7 7 8 1 1v161h-818l3-5 10-11 7-8 4-5h2l2-4 8-10h2l2-4 9-10 9-11 10-11 7-8 3-4h2l2-5 4-2 2-4 9-11 8-9h2l2-4 2-3h2l2-4 9-11 11-12 9-11 12-13 2-3h2l2-5 12-13 7-8 3-4h2l2-4 9-11 6-7 4 2 12 8 36 26 17 12 18 13 14 10 17 12 18 13 13 9 12 6 13 2 10-1 14-7 8-8 66-99 29-44 20-30 29-44 28-42z" fill="#ACFBB9"/>
<path transform="translate(326,651)" d="m0 0h32l22 3 29 9 16 8 16 9 13 10 10 9 7 6 9 11 11 14 10 18 7 14 9 29 3 22 1 8v16l-3 25-4 17-7 21-8 16-9 15-8 10-9 11-5 6-11 9-12 10-15 9-15 8-14 5-23 7-26 3h-22l-25-3-24-7-15-6-24-13-17-14-11-9-12-14-10-13-9-16-8-16-8-25-3-15-2-21v-14l3-27 5-19 7-20 12-22 6-9 11-14 9-10 8-7 15-12 13-8 18-10 30-10 17-3z" fill="#010000"/>
<path transform="translate(1120,1116)" d="m0 0h888l12 2 10 5 9 8 6 10 3 10v11l-4 12-8 10-7 6-9 4-10 2h-892l-12-3-9-6-7-7-6-12-2-9 1-11 4-11 6-8 7-6 10-5z" fill="#010000"/>
<path transform="translate(1121,1281)" d="m0 0h535l14 2 9 4 9 7 7 10 3 9 1 11-3 13-8 12-9 7-11 4-5 1-533 1-14-1-10-3-11-7-8-11-4-11-1-10 3-12 5-9 6-7 10-6 9-3z" fill="#010000"/>
<path transform="translate(223,99)" d="m0 0h21l19 3 17 6 15 8 14 10 14 14 9 12 8 14 6 15 4 16 2 18-1 14-3 18-6 17-10 19-11 13-5 6-14 11-13 8-13 6-16 5-20 3h-13l-21-3-16-5-21-11-13-10-9-8-11-14-9-15-7-19-4-20v-26l3-17 6-18 10-18 9-11 13-13 12-9 14-8 8-4 18-5z" fill="#010000"/>
<path transform="translate(727,99)" d="m0 0h19l20 3 19 7 16 9 12 9 14 14 10 14 9 17 6 19 2 12v28l-3 16-6 17-9 17-13 16-10 10-14 10-17 9-15 5-15 3-10 1h-11l-17-2-18-5-21-10-11-8-10-9-8-8-11-15-9-19-5-17-2-13v-25l4-20 6-17 8-14 7-9 11-12 10-9 10-7 17-9 20-6z" fill="#010000"/>
<path transform="translate(475,99)" d="m0 0h21l22 4 15 6 15 8 12 9 10 9 11 13 9 15 5 11 5 16 3 20v15l-3 20-6 18-10 19-14 17-11 10-10 7-16 9-21 7-12 2-10 1h-11l-17-2-15-4-16-7-15-9-15-13-9-10-9-14-8-16-5-16-2-11-1-11v-11l3-21 5-16 8-16 7-11 12-14 14-12 20-12 13-5 18-4z" fill="#010000"/>
<path transform="translate(962,180)" d="m0 0h300l34 1 12 3 9 6 9 10 4 9 2 9v7l-3 11-5 9-5 5-8 7-11 4-15 1h-328l-16-2-9-4-8-6-6-7-5-12-1-6v-9l4-13 8-11 11-8 12-3z" fill="#010000"/>
<path transform="translate(1127,1446)" d="m0 0h319l16 1 13 4 9 7 6 7 4 8 2 6v14l-3 10-6 9-5 5-9 6-11 3-9 1h-331l-15-3-10-6-7-8-6-11-2-10 1-10 4-11 6-8 9-8 9-4z" fill="#020101"/>
<path transform="translate(335,730)" d="m0 0h13l15 2 18 6 18 10 15 13 11 14 9 17 5 16 2 14v15l-2 15-6 18-9 16-9 11-9 9-11 8-15 8-20 6-16 2-15-1-15-3-16-6-12-7-10-8-7-6-11-14-9-17-6-20-1-7v-21l3-16 6-16 7-13 10-13 7-7 15-11 17-8 13-4z" fill="#FDF592"/>
<path transform="translate(1711,1785)" d="m0 0h105l69 1 12 3 10 5 7 6 6 10 3 10v13l-3 10-7 11-4 3h-2v2l-10 5-13 3h-189l-14-4-9-6-5-5-6-10-3-10v-11l4-13 7-10 10-7 6-3 10-2z" fill="#010101"/>
<path transform="translate(152,1786)" d="m0 0h180l16 1 10 3 5 2v2h3v2l5 2 7 11 3 7 1 16-4 13-7 9-8 7-10 4-9 2h-191l-13-4-11-7-6-7-4-8-2-9v-13l4-11 8-11 10-7 8-3z" fill="#010000"/>
<path transform="translate(924,1786)" d="m0 0h175l22 1 11 4 9 7 6 8 4 10 1 5v14l-4 11-8 10-8 6-11 4-6 1h-191l-12-3-11-7-3-3v-2l-3-1-4-7-4-15 1-11 4-11 7-9 9-7 10-4z" fill="#010000"/>
<path transform="translate(539,1786)" d="m0 0h176l18 1 10 3 7 3v2l5 2 7 9 4 9 1 4v14l-3 10-7 11-7 6h-3v2l-14 4-4 1h-190l-12-3-10-6-5-5v-2h-2v-3h-2l-5-13-1-4v-9l2-9 6-11 8-8 11-6z" fill="#010000"/>
<path transform="translate(1308,1786)" d="m0 0h178l18 1 9 2 6 3v2h3v2l4 2 6 7 5 12 1 10-3 15-3 6h-2l-1 4-8 7h-2v2l-15 5-4 1h-186l-13-2-12-6-6-5-6-10-3-8-1-5v-11l3-10 6-10 8-7 10-5z" fill="#010000"/>
<path transform="translate(1466,177)" d="m0 0h18l10 4 8 6 7 8 5 10 1 5v15l-5 12-9 10-8 6-12 4h-14l-10-3-10-6-7-8-6-13v-19l4-10 7-10 10-7z" fill="#010000"/>
<path transform="translate(1832,1282)" d="m0 0h20l12 5 9 8 7 12 2 7v15l-4 10-6 9-8 7-11 5-10 2-11-1-11-4-9-7-6-8-4-9-1-3v-16l4-11 4-6 4-5 9-6z" fill="#020101"/>
<path transform="translate(909,605)" d="m0 0h3l-1 320-1 16-1 45-1 15v58l-1 2-1 30h-1l-1-8h-1v-23h-1v-58l-1-192-1-115-2-36v-13l-1-27-2-3-15-2-5-2-12-2-17-1-2-2 7-1h55l3 1z" fill="#9BEAFA"/>
<path transform="translate(729,180)" d="m0 0h15l11 4 9 7 7 11 3 10v9l-3 11-7 11-8 6-10 4-4 1h-13l-11-4-10-8-6-10-3-11v-9l3-10 6-9 9-8 8-4z" fill="#AAF8B8"/>
<path transform="translate(477,180)" d="m0 0h16l10 4 8 6 5 6 5 10 1 4v14l-4 11-8 10-9 6-16 4-14-3-10-6-7-8-5-10-1-5v-12l3-10 6-9 8-7 8-4z" fill="#FAF392"/>
<path transform="translate(228,180)" d="m0 0h12l11 4 9 7 6 8 4 9 1 4v9l-4 13-7 9-8 7-16 5-9-1-11-4-8-6-6-7-4-8-1-5v-16l4-10 9-10 9-6z" fill="#5E6E80"/>
<path transform="translate(733,969)" d="m0 0 5 4v2l4 2 10 11 7 8 11 12 20 20 5 6 3 2v2l4 2 4 4v2l4 2 7 9 14 15 14 14 7 8 15 16 11 14 5 9 5 6 6 5h5l4-5 4-13 2-2 1 11 1-160h1v194l-4-1-3-4v-2h-2l-7-8-10-10-7-8-8-8-7-8-9-9-7-8-4-8-6-7-15-15v-2l-4-2-7-8-9-9-7-8-2-5-7-7v-2l-4-2-12-11-5-6-23-23v-2l-4-2-5-7-2-4-1-3z" fill="#94DCEC"/>
<path transform="translate(384,650)" d="m0 0h8l13 5 3 3 10 2 6 2 15 8 11 7 10 9 6 4v2l4 2 13 15 8 9 8 13v5l-8-4-8-11-11-13-6-7-22-18-17-10-16-8-24-8-3-2-1-4z" fill="#98E2F4"/>
<path transform="translate(183,928)" d="m0 0h7l5 5 12 14 9 11 11 9 15 12 6 3-1 4h3l5 5 7 6v2l-10-3-11-7-8-4-12-9-13-11-9-11-8-10-4-6-2-5z" fill="#99E5F6"/>
<path transform="translate(340,1140)" d="m0 0 8 4 5 3 3 4 4 1 10 5 2 2 3 4 7 2 5 5 6 4 5 2 4 4v2l5 1v3l3-1 8 6 3 3 5 2 5 6-7-1-2-2-5-2-2-1-1 2-19-14-13-9-18-13-17-12-8-6z" fill="#98E1F3"/>
<path transform="translate(85,608)" d="m0 0h9l-1 5-5 5-2 3 1 13v29l-1 9-1 16-1 7-1 11h-1l-1-68 1-24 2-5z" fill="#9BEAFB"/>
<path transform="translate(667,606)" d="m0 0h119l5 1v1l-10 1-113-1z" fill="#9BEBFB"/>
<path transform="translate(84,1312)" d="m0 0 2 4 1 4 7-1 1 6-7 7-6 8h-1v-9l1-5v-13z" fill="#99E4F2"/>
<path transform="translate(458,1215)" d="m0 0h7v2h2l-1 5-5 8-5-2-4-4h2l-2-3v-5z" fill="#95DDEE"/>
<path transform="translate(505,746)" d="m0 0 4 5 3 5 5 14 1 12-2 1v-6h-2v-2h-2l-2-14-2-1-2-7z" fill="#9BEAFA"/>
<path transform="translate(1924,1825)" d="m0 0h1l2 9-1 8-3 6-2 2-4-1 3-10 3-8z" fill="#F3F4F8"/>
<path transform="translate(505,902)" d="m0 0h6l-4 11-3 4h-3l-1 4-4-2 7-12z" fill="#95DAEC"/>
<path transform="translate(469,703)" d="m0 0 4 1 9 11v2l4 2v2h2l6 9v3l-3-1-8-11-11-13z" fill="#8DC2DA"/>
<path transform="translate(1964,1697)" d="m0 0h2v50h-1l-2-11v-10l1-7z" fill="#FDFDFD"/>
<path transform="translate(340,1140)" d="m0 0 8 4 5 3 3 5 2 2-4 1-15-11z" fill="#95D9EC"/>
<path transform="translate(160,843)" d="m0 0h1l2 11v11l-4-1-2-14z" fill="#9BEAFB"/>
<path transform="translate(872,1126)" d="m0 0 4 2 3 4v2l4 2 9 9v2l3 1 1 3h-3l-7-7-7-8-8-8z" fill="#8EC1DA"/>
<path transform="translate(847,1101)" d="m0 0 4 1 9 9 7 8 5 6h-3l-14-14-7-8z" fill="#92C5E0"/>
<path transform="translate(115,1820)" d="m0 0h1v10l1 6h2l2 6 1 6-5-5-3-8-1-7z" fill="#ECEDF1"/>
<path transform="translate(84,1689)" d="m0 0 7 1 1 3-3 3-5 1-2-3v-4z" fill="#FCFCFC"/>
<path transform="translate(329,1132)" d="m0 0 4 1 5 6-1 4-12-9z" fill="#94D6EA"/>
<path transform="translate(142,1865)" d="m0 0 11 1 3 4-8 1-4-3-3-2z" fill="#F6F7FA"/>
<path transform="translate(469,703)" d="m0 0 4 1 9 11-1 4-8-10z" fill="#8BBBD4"/>
<path transform="translate(1536,1842)" d="m0 0 2 3-7 9-3-2 2-4h2l1-4z" fill="#EDEEF3"/>
<path transform="translate(82,1956)" d="m0 0 5 1 3 5v1h-6v-2h-2z" fill="#FDFDFD"/>
<path transform="translate(380,1842)" d="m0 0 2 1-2 5-3 1v2l-4 1 5-9z" fill="#F6F7FA"/>
<path transform="translate(426,987)" d="m0 0h3v2l-5 3h-2v2h-5l1-3z" fill="#93CDE4"/>
<path transform="translate(124,1852)" d="m0 0 4 2 5 4 1 3-3 1-5-5z" fill="#F2F3F7"/>
<path transform="translate(507,759)" d="m0 0 3 1 2 9v5l-2-3-3-9z" fill="#87B6CE"/>
<path transform="translate(238,977)" d="m0 0 10 5-1 2-4-1-4-2z" fill="#90C3DE"/>
</svg>
