<?xml version="1.0" encoding="UTF-8"?>
<svg version="1.1" viewBox="0 0 2048 2048" width="512" height="512" xmlns="http://www.w3.org/2000/svg">
<path transform="translate(225)" d="m0 0h1603l4 2 28 6 24 8 16 7 16 8 17 10 19 14 10 9 8 7 12 12 7 8 13 17 12 19 12 23 8 20 6 20 5 21 2 7h1v1610l-2 2-5 24-7 24-10 24-10 19-10 16-16 21-5 6h-2l-2 4-13 13-11 9-10 8-13 9-22 13-22 10-20 7-23 6-24 5h-1601l-2-2-24-5-24-7-24-10-19-10-17-11-12-9-11-9-15-14-12-13-13-17-10-15-9-16-10-21-10-30-6-28-2-7v-1600l4-18 7-28 7-19 11-24 14-23 10-13 7-9 2-3h2l2-4 20-20 11-9 15-11 13-8 14-8 19-9 30-10 26-6zm36 128-26 2-17 4-14 5-18 10-14 11-7 6-9 11-8 11-8 15-7 19-3 17-1 10-1 33v1499l1 20 3 21 7 21 10 19 13 16 11 11 15 11 17 9 18 6 18 3 9 1h1547l20-2 23-7 21-11 13-10 10-9 12-14 8-14 7-14 5-17 3-23v-1547l-2-19-6-22-8-17-7-11-13-16-14-12-14-9-16-8-20-6-17-2-20-1z" fill="#010101"/>
<path transform="translate(1e3 524)" d="m0 0h46l12 3 13 7 14 12 356 356 10 13 6 11 3 12v21l-3 12-6 12-8 10-7 7-14 8-12 4-6 1h-18l-12-3-12-6-9-7-8-8-6-5-6-7-40-40-6-5-6-7-112-112-6-5-6-7-6-5-6-7-6-5-6-7-6-5-7-8-5-4-7-8-13-12-6-6-1 107v507l-1 69-3 12-8 16-11 12-10 7-11 5-13 3h-17l-13-3-12-6-9-7-8-8-8-13-4-11-2-17-1-674-6 7-4 4h-2v2h-2v2l-7 6-5 6-6 5-7 8-219 219-11 9-10 6-14 5-6 1h-18l-15-4-12-7-10-9-8-10-6-12-3-10-1-16 3-15 5-12 8-11 9-10 358-358 13-9 13-5z" fill="#010101"/>
<path transform="translate(2047,216)" d="m0 0"/>
</svg>
